<svg xmlns="http://www.w3.org/2000/svg" viewBox="0 0 81.2857 81.2857">
  <defs>
    <style>
      .cls-1 {
        fill: #297b3d;
      }

      .cls-2 {
        fill: #5e1310;
      }

      .cls-3 {
        fill: #993320;
      }

      .cls-4 {
        fill: #fff;
      }
    </style>
  </defs>
  <title>logo_kopbun_kotak</title>
  <g id="Layer_2" data-name="Layer 2">
    <g id="Layer_1-2" data-name="Layer 1">
      <path class="cls-1" d="M70.4908,56.12a15.4767,15.4767,0,0,1,0-30.9533h0V16.9886a6.1939,6.1939,0,0,0-6.1938-6.1938H54.35a15.4767,15.4767,0,1,1-30.9533,0h-6.408a6.1939,6.1939,0,0,0-6.1938,6.1938v8.1776a15.4766,15.4766,0,1,1,0,30.9532v8.1777a6.1939,6.1939,0,0,0,6.1938,6.1938h6.408a15.4766,15.4766,0,1,1,30.9532,0h9.9473a6.1939,6.1939,0,0,0,6.1938-6.1938V56.12Z"/>
      <circle class="cls-2" cx="38.8732" cy="10.7948" r="10.7948"/>
      <circle class="cls-2" cx="38.8732" cy="70.4909" r="10.7948"/>
      <circle class="cls-3" cx="10.7948" cy="40.6429" r="10.7948"/>
      <circle class="cls-3" cx="70.4909" cy="40.6429" r="10.7948"/>
      <circle class="cls-4" cx="38.8732" cy="10.7948" r="6.2371"/>
      <circle class="cls-4" cx="10.7948" cy="40.6429" r="6.2371"/>
      <circle class="cls-4" cx="70.4909" cy="40.6429" r="6.2371"/>
      <circle class="cls-4" cx="38.8732" cy="70.4909" r="6.2371"/>
    </g>
  </g>
</svg>
