<svg xmlns="http://www.w3.org/2000/svg" viewBox="0 0 278.4422 81.2857">
  <defs>
    <style>
      .cls-1 {
        fill: #297b3d;
      }

      .cls-2 {
        fill: #5e1310;
      }

      .cls-3 {
        fill: #993320;
      }

      .cls-4 {
        fill: #fff;
      }
    </style>
  </defs>
  <title>logo_kopbun_2</title>
  <g id="Layer_2" data-name="Layer 2">
    <g id="Layer_1-2" data-name="Layer 1">
      <g>
        <path class="cls-1" d="M129.9461,57.8029h-6.4789l-9.1554-16.2766-2.302,2.73V57.8029H106.468V22.8675H112.01V36.5742l10.8684-13.7067h7.1212L117.8188,37.35Z"/>
        <path class="cls-1" d="M160.6782,45.3545a14.5672,14.5672,0,0,1-.9233,5.3009,11.7214,11.7214,0,0,1-2.6508,4.1091,12.1542,12.1542,0,0,1-4.1354,2.69,14.3807,14.3807,0,0,1-5.3812.9641,14.227,14.227,0,0,1-5.3272-.9641,12.15,12.15,0,0,1-4.1361-2.69,11.7214,11.7214,0,0,1-2.65-4.1091,15.5522,15.5522,0,0,1,0-10.5611,11.6855,11.6855,0,0,1,6.7863-6.88,14.41,14.41,0,0,1,5.3272-.95,14.5663,14.5663,0,0,1,5.3812.95,11.69,11.69,0,0,1,6.7862,6.88A14.6567,14.6567,0,0,1,160.6782,45.3545Zm-5.5411.0138a9.8031,9.8031,0,0,0-.52-3.2049,7.0429,7.0429,0,0,0-3.8946-4.29,8.1477,8.1477,0,0,0-6.2821,0,6.9944,6.9944,0,0,0-2.3475,1.7025,7.4621,7.4621,0,0,0-1.4807,2.5876,9.8028,9.8028,0,0,0-.52,3.2049,9.4608,9.4608,0,0,0,.52,3.2174,7.8736,7.8736,0,0,0,1.4807,2.5474,6.5358,6.5358,0,0,0,2.3475,1.7032,8.485,8.485,0,0,0,6.2821,0,6.7671,6.7671,0,0,0,2.3875-1.7032,7.6259,7.6259,0,0,0,1.5071-2.5474A9.4607,9.4607,0,0,0,155.1371,45.3683Z"/>
        <path class="cls-1" d="M166.3266,32.8527h5.5418v2.2487a12.1035,12.1035,0,0,1,3.199-2.1283,9.1667,9.1667,0,0,1,3.7077-.7094,10.3,10.3,0,0,1,4.47.9773,10.5027,10.5027,0,0,1,3.5339,2.7041,13.0058,13.0058,0,0,1,2.329,4.1492,16.6176,16.6176,0,0,1,0,10.5341,13.03,13.03,0,0,1-2.329,4.1361,10.367,10.367,0,0,1-8.0043,3.6544,8.7869,8.7869,0,0,1-3.7077-.7456,12.9932,12.9932,0,0,1-3.199-2.1573V67.7881h-5.5418Zm5.5418,18.28a6.56,6.56,0,0,0,2.53,1.7032,8.0936,8.0936,0,0,0,2.9581.6028,6.4888,6.4888,0,0,0,5.1-2.2257,8.496,8.496,0,0,0,1.9677-5.8451,8.6017,8.6017,0,0,0-1.9677-5.8728,6.4541,6.4541,0,0,0-5.1-2.252,8.4206,8.4206,0,0,0-2.9581.5765,6.3166,6.3166,0,0,0-2.53,1.6755Z"/>
        <path class="cls-1" d="M219.8406,48.2264q0,4.7619-3.2391,7.1692t-9.2087,2.4073H196.2559V22.8675h10.5209a25.5461,25.5461,0,0,1,4.31.362,11.0022,11.0022,0,0,1,3.7886,1.3523,7.6456,7.6456,0,0,1,2.7166,2.7732,9.062,9.062,0,0,1,1.0444,4.6218,9.0742,9.0742,0,0,1-1.3517,4.85,7.5513,7.5513,0,0,1-4.0828,3.1614,10.7374,10.7374,0,0,1,4.9929,2.916A7.8054,7.8054,0,0,1,219.8406,48.2264Zm-6.6921-15.5343a4.8536,4.8536,0,0,0-.5759-2.5033,4.1045,4.1045,0,0,0-1.4859-1.4939,5.6332,5.6332,0,0,0-2.0342-.6864,15.9537,15.9537,0,0,0-2.2757-.1619h-4.9791v9.6911h4.9791a15.9389,15.9389,0,0,0,2.2757-.1613,5.6332,5.6332,0,0,0,2.0342-.6864,4.1009,4.1009,0,0,0,1.4859-1.4945A4.8505,4.8505,0,0,0,213.1485,32.6921Zm1.2043,14.965a4.3835,4.3835,0,0,0-1.8335-3.8821,8.9814,8.9814,0,0,0-5.1265-1.2582h-5.5951v10.307h5.5951a8.9,8.9,0,0,0,5.1265-1.2721A4.4151,4.4151,0,0,0,214.3528,47.6571Z"/>
        <path class="cls-1" d="M226.1852,32.8527h5.5418v15.44q0,2.8944,1.0977,4.021a4.2494,4.2494,0,0,0,3.1852,1.1253,6.086,6.086,0,0,0,5.0061-2.4922,10.9028,10.9028,0,0,0,1.9545-6.8895V32.8527h5.5418v24.95h-5.5418V51.5655a9.2137,9.2137,0,0,1-3.0786,5.0324,8.5239,8.5239,0,0,1-5.5417,1.821,7.5149,7.5149,0,0,1-5.9966-2.5034q-2.1677-2.5025-2.1684-7.6431Z"/>
        <path class="cls-1" d="M278.4422,57.8029H272.9V42.41q0-2.9181-1.0977-4.0427a4.2529,4.2529,0,0,0-3.1858-1.124,6.0781,6.0781,0,0,0-5.0192,2.4895,10.9277,10.9277,0,0,0-1.9407,6.88v11.19h-5.5418v-24.95h5.5418v6.2644a9.1573,9.1573,0,0,1,3.0785-5.0463,8.5664,8.5664,0,0,1,5.5411-1.8071,7.5358,7.5358,0,0,1,5.9972,2.49q2.1678,2.49,2.1684,7.6569Z"/>
      </g>
      <g>
        <path class="cls-1" d="M70.4908,56.12a15.4767,15.4767,0,0,1,0-30.9533h0V16.9886a6.1939,6.1939,0,0,0-6.1938-6.1938H54.35a15.4767,15.4767,0,1,1-30.9533,0h-6.408a6.1939,6.1939,0,0,0-6.1938,6.1938v8.1776a15.4766,15.4766,0,1,1,0,30.9532v8.1777a6.1939,6.1939,0,0,0,6.1938,6.1938h6.408a15.4766,15.4766,0,1,1,30.9532,0h9.9473a6.1939,6.1939,0,0,0,6.1938-6.1938V56.12Z"/>
        <circle class="cls-2" cx="38.8732" cy="10.7948" r="10.7948"/>
        <circle class="cls-2" cx="38.8732" cy="70.4909" r="10.7948"/>
        <circle class="cls-3" cx="10.7948" cy="40.6429" r="10.7948"/>
        <circle class="cls-3" cx="70.4909" cy="40.6429" r="10.7948"/>
        <circle class="cls-4" cx="38.8732" cy="10.7948" r="6.2371"/>
        <circle class="cls-4" cx="10.7948" cy="40.6429" r="6.2371"/>
        <circle class="cls-4" cx="70.4909" cy="40.6429" r="6.2371"/>
        <circle class="cls-4" cx="38.8732" cy="70.4909" r="6.2371"/>
      </g>
    </g>
  </g>
</svg>
